<svg width="68" height="68" viewBox="0 0 68 68" fill="none" xmlns="http://www.w3.org/2000/svg">
<path d="M30.6667 50.6666H37.3334V37.3333H50.6667V30.6666H37.3334V17.3333H30.6667V30.6666H17.3334V37.3333H30.6667V50.6666ZM34.0001 67.3333C29.389 67.3333 25.0556 66.4583 21.0001 64.7083C16.9445 62.9583 13.4167 60.5833 10.4167 57.5833C7.41675 54.5833 5.04175 51.0555 3.29175 47C1.54175 42.9444 0.666748 38.6111 0.666748 34C0.666748 29.3888 1.54175 25.0555 3.29175 21C5.04175 16.9444 7.41675 13.4166 10.4167 10.4166C13.4167 7.41663 16.9445 5.04163 21.0001 3.29163C25.0556 1.54163 29.389 0.666626 34.0001 0.666626C38.6112 0.666626 42.9445 1.54163 47.0001 3.29163C51.0556 5.04163 54.5834 7.41663 57.5834 10.4166C60.5834 13.4166 62.9584 16.9444 64.7084 21C66.4584 25.0555 67.3334 29.3888 67.3334 34C67.3334 38.6111 66.4584 42.9444 64.7084 47C62.9584 51.0555 60.5834 54.5833 57.5834 57.5833C54.5834 60.5833 51.0556 62.9583 47.0001 64.7083C42.9445 66.4583 38.6112 67.3333 34.0001 67.3333Z" fill="#EE680B"/>
</svg>
