<svg width="50" height="50" viewBox="0 0 50 50" fill="none" xmlns="http://www.w3.org/2000/svg">
<mask id="mask0_83_328" style="mask-type:alpha" maskUnits="userSpaceOnUse" x="0" y="0" width="50" height="50">
<rect width="50" height="50" fill="#D9D9D9"/>
</mask>
<g mask="url(#mask0_83_328)">
<path d="M10.4167 39.5833C9.27092 39.5833 8.29001 39.1754 7.47404 38.3594C6.65807 37.5434 6.25008 36.5625 6.25008 35.4167V16.6667C5.6598 16.6667 5.16501 16.467 4.76571 16.0677C4.3664 15.6684 4.16675 15.1736 4.16675 14.5833C4.16675 13.9931 4.3664 13.4983 4.76571 13.099C5.16501 12.6997 5.6598 12.5 6.25008 12.5H12.5001V11.4583C12.5001 10.8681 12.6997 10.3733 13.099 9.97396C13.4983 9.57465 13.9931 9.375 14.5834 9.375H18.7501C19.3404 9.375 19.8352 9.57465 20.2345 9.97396C20.6338 10.3733 20.8334 10.8681 20.8334 11.4583V12.5H27.0834C27.6737 12.5 28.1685 12.6997 28.5678 13.099C28.9671 13.4983 29.1667 13.9931 29.1667 14.5833C29.1667 15.1736 28.9671 15.6684 28.5678 16.0677C28.1685 16.467 27.6737 16.6667 27.0834 16.6667V35.4167C27.0834 36.5625 26.6754 37.5434 25.8595 38.3594C25.0435 39.1754 24.0626 39.5833 22.9167 39.5833H10.4167ZM33.3334 37.5C32.7431 37.5 32.2483 37.3004 31.849 36.901C31.4497 36.5017 31.2501 36.0069 31.2501 35.4167C31.2501 34.8264 31.4497 34.3316 31.849 33.9323C32.2483 33.533 32.7431 33.3333 33.3334 33.3333H37.5001C38.0904 33.3333 38.5852 33.533 38.9845 33.9323C39.3838 34.3316 39.5834 34.8264 39.5834 35.4167C39.5834 36.0069 39.3838 36.5017 38.9845 36.901C38.5852 37.3004 38.0904 37.5 37.5001 37.5H33.3334ZM33.3334 29.1667C32.7431 29.1667 32.2483 28.967 31.849 28.5677C31.4497 28.1684 31.2501 27.6736 31.2501 27.0833C31.2501 26.4931 31.4497 25.9983 31.849 25.599C32.2483 25.1997 32.7431 25 33.3334 25H41.6668C42.257 25 42.7518 25.1997 43.1511 25.599C43.5504 25.9983 43.7501 26.4931 43.7501 27.0833C43.7501 27.6736 43.5504 28.1684 43.1511 28.5677C42.7518 28.967 42.257 29.1667 41.6668 29.1667H33.3334ZM33.3334 20.8333C32.7431 20.8333 32.2483 20.6337 31.849 20.2344C31.4497 19.8351 31.2501 19.3403 31.2501 18.75C31.2501 18.1597 31.4497 17.6649 31.849 17.2656C32.2483 16.8663 32.7431 16.6667 33.3334 16.6667H43.7501C44.3404 16.6667 44.8352 16.8663 45.2345 17.2656C45.6338 17.6649 45.8334 18.1597 45.8334 18.75C45.8334 19.3403 45.6338 19.8351 45.2345 20.2344C44.8352 20.6337 44.3404 20.8333 43.7501 20.8333H33.3334Z" fill="#EE680B"/>
<mask id="mask1_83_328" style="mask-type:alpha" maskUnits="userSpaceOnUse" x="0" y="0" width="50" height="50">
<rect width="50" height="50" fill="#D9D9D9"/>
</mask>
<g mask="url(#mask1_83_328)">
<path d="M10.4167 39.5833C9.27092 39.5833 8.29001 39.1754 7.47404 38.3594C6.65807 37.5434 6.25008 36.5625 6.25008 35.4167V16.6667C5.6598 16.6667 5.16501 16.467 4.76571 16.0677C4.3664 15.6684 4.16675 15.1736 4.16675 14.5833C4.16675 13.9931 4.3664 13.4983 4.76571 13.099C5.16501 12.6997 5.6598 12.5 6.25008 12.5H12.5001V11.4583C12.5001 10.8681 12.6997 10.3733 13.099 9.97396C13.4983 9.57465 13.9931 9.375 14.5834 9.375H18.7501C19.3404 9.375 19.8352 9.57465 20.2345 9.97396C20.6338 10.3733 20.8334 10.8681 20.8334 11.4583V12.5H27.0834C27.6737 12.5 28.1685 12.6997 28.5678 13.099C28.9671 13.4983 29.1667 13.9931 29.1667 14.5833C29.1667 15.1736 28.9671 15.6684 28.5678 16.0677C28.1685 16.467 27.6737 16.6667 27.0834 16.6667V35.4167C27.0834 36.5625 26.6754 37.5434 25.8595 38.3594C25.0435 39.1754 24.0626 39.5833 22.9167 39.5833H10.4167ZM33.3334 37.5C32.7431 37.5 32.2483 37.3004 31.849 36.901C31.4497 36.5017 31.2501 36.0069 31.2501 35.4167C31.2501 34.8264 31.4497 34.3316 31.849 33.9323C32.2483 33.533 32.7431 33.3333 33.3334 33.3333H37.5001C38.0904 33.3333 38.5852 33.533 38.9845 33.9323C39.3838 34.3316 39.5834 34.8264 39.5834 35.4167C39.5834 36.0069 39.3838 36.5017 38.9845 36.901C38.5852 37.3004 38.0904 37.5 37.5001 37.5H33.3334ZM33.3334 29.1667C32.7431 29.1667 32.2483 28.967 31.849 28.5677C31.4497 28.1684 31.2501 27.6736 31.2501 27.0833C31.2501 26.4931 31.4497 25.9983 31.849 25.599C32.2483 25.1997 32.7431 25 33.3334 25H41.6668C42.257 25 42.7518 25.1997 43.1511 25.599C43.5504 25.9983 43.7501 26.4931 43.7501 27.0833C43.7501 27.6736 43.5504 28.1684 43.1511 28.5677C42.7518 28.967 42.257 29.1667 41.6668 29.1667H33.3334ZM33.3334 20.8333C32.7431 20.8333 32.2483 20.6337 31.849 20.2344C31.4497 19.8351 31.2501 19.3403 31.2501 18.75C31.2501 18.1597 31.4497 17.6649 31.849 17.2656C32.2483 16.8663 32.7431 16.6667 33.3334 16.6667H43.7501C44.3404 16.6667 44.8352 16.8663 45.2345 17.2656C45.6338 17.6649 45.8334 18.1597 45.8334 18.75C45.8334 19.3403 45.6338 19.8351 45.2345 20.2344C44.8352 20.6337 44.3404 20.8333 43.7501 20.8333H33.3334Z" fill="#EE680B"/>
</g>
</g>
</svg>
