<svg width="480" height="333" viewBox="0 0 480 333" fill="none" xmlns="http://www.w3.org/2000/svg">
<mask id="path-1-outside-1_83_252" maskUnits="userSpaceOnUse" x="97" y="72" width="167" height="137" fill="black">
<rect fill="white" x="97" y="72" width="167" height="137"/>
<path d="M150.949 204.083L116.999 114.518L101.892 112.525V76.5H181.911V112.525L172.78 114.518L187.141 161.749L201.501 114.518L192.37 112.525V76.5H259.025V112.525L244.001 114.518L210.051 204.083H150.949Z"/>
</mask>
<path d="M150.949 204.083L116.999 114.518L101.892 112.525V76.5H181.911V112.525L172.78 114.518L187.141 161.749L201.501 114.518L192.37 112.525V76.5H259.025V112.525L244.001 114.518L210.051 204.083H150.949Z" fill="url(#paint0_linear_83_252)"/>
<path d="M150.949 204.083L147.209 205.501L148.188 208.083H150.949V204.083ZM116.999 114.518L120.739 113.1L119.892 110.864L117.522 110.552L116.999 114.518ZM101.892 112.525H97.8916V116.033L101.369 116.491L101.892 112.525ZM101.892 76.5V72.5H97.8916V76.5H101.892ZM181.911 76.5H185.911V72.5H181.911V76.5ZM181.911 112.525L182.764 116.433L185.911 115.747V112.525H181.911ZM172.78 114.518L171.928 110.61L167.692 111.534L168.953 115.681L172.78 114.518ZM187.141 161.749L183.314 162.913L187.141 175.5L190.968 162.913L187.141 161.749ZM201.501 114.518L205.328 115.681L206.589 111.534L202.354 110.61L201.501 114.518ZM192.37 112.525H188.37V115.747L191.517 116.433L192.37 112.525ZM192.37 76.5V72.5H188.37V76.5H192.37ZM259.025 76.5H263.025V72.5H259.025V76.5ZM259.025 112.525L259.551 116.491L263.025 116.03V112.525H259.025ZM244.001 114.518L243.475 110.552L241.107 110.866L240.261 113.1L244.001 114.518ZM210.051 204.083V208.083H212.812L213.791 205.501L210.051 204.083ZM150.949 204.083L154.69 202.665L120.739 113.1L116.999 114.518L113.259 115.935L147.209 205.501L150.949 204.083ZM116.999 114.518L117.522 110.552L102.415 108.56L101.892 112.525L101.369 116.491L116.476 118.483L116.999 114.518ZM101.892 112.525H105.892V76.5H101.892H97.8916V112.525H101.892ZM101.892 76.5V80.5H181.911V76.5V72.5H101.892V76.5ZM181.911 76.5H177.911V112.525H181.911H185.911V76.5H181.911ZM181.911 112.525L181.058 108.617L171.928 110.61L172.78 114.518L173.633 118.426L182.764 116.433L181.911 112.525ZM172.78 114.518L168.953 115.681L183.314 162.913L187.141 161.749L190.968 160.585L176.607 113.354L172.78 114.518ZM187.141 161.749L190.968 162.913L205.328 115.681L201.501 114.518L197.674 113.354L183.314 160.585L187.141 161.749ZM201.501 114.518L202.354 110.61L193.223 108.617L192.37 112.525L191.517 116.433L200.648 118.426L201.501 114.518ZM192.37 112.525H196.37V76.5H192.37H188.37V112.525H192.37ZM192.37 76.5V80.5H259.025V76.5V72.5H192.37V76.5ZM259.025 76.5H255.025V112.525H259.025H263.025V76.5H259.025ZM259.025 112.525L258.5 108.56L243.475 110.552L244.001 114.518L244.527 118.483L259.551 116.491L259.025 112.525ZM244.001 114.518L240.261 113.1L206.31 202.665L210.051 204.083L213.791 205.501L247.741 115.935L244.001 114.518ZM210.051 204.083V200.083H150.949V204.083V208.083H210.051V204.083Z" fill="black" mask="url(#path-1-outside-1_83_252)"/>
<path d="M150.949 204.083L147.209 205.501L148.188 208.083H150.949V204.083ZM116.999 114.518L120.739 113.1L119.892 110.864L117.522 110.552L116.999 114.518ZM101.892 112.525H97.8916V116.033L101.369 116.491L101.892 112.525ZM101.892 76.5V72.5H97.8916V76.5H101.892ZM181.911 76.5H185.911V72.5H181.911V76.5ZM181.911 112.525L182.764 116.433L185.911 115.747V112.525H181.911ZM172.78 114.518L171.928 110.61L167.692 111.534L168.953 115.681L172.78 114.518ZM187.141 161.749L183.314 162.913L187.141 175.5L190.968 162.913L187.141 161.749ZM201.501 114.518L205.328 115.681L206.589 111.534L202.354 110.61L201.501 114.518ZM192.37 112.525H188.37V115.747L191.517 116.433L192.37 112.525ZM192.37 76.5V72.5H188.37V76.5H192.37ZM259.025 76.5H263.025V72.5H259.025V76.5ZM259.025 112.525L259.551 116.491L263.025 116.03V112.525H259.025ZM244.001 114.518L243.475 110.552L241.107 110.866L240.261 113.1L244.001 114.518ZM210.051 204.083V208.083H212.812L213.791 205.501L210.051 204.083ZM150.949 204.083L154.69 202.665L120.739 113.1L116.999 114.518L113.259 115.935L147.209 205.501L150.949 204.083ZM116.999 114.518L117.522 110.552L102.415 108.56L101.892 112.525L101.369 116.491L116.476 118.483L116.999 114.518ZM101.892 112.525H105.892V76.5H101.892H97.8916V112.525H101.892ZM101.892 76.5V80.5H181.911V76.5V72.5H101.892V76.5ZM181.911 76.5H177.911V112.525H181.911H185.911V76.5H181.911ZM181.911 112.525L181.058 108.617L171.928 110.61L172.78 114.518L173.633 118.426L182.764 116.433L181.911 112.525ZM172.78 114.518L168.953 115.681L183.314 162.913L187.141 161.749L190.968 160.585L176.607 113.354L172.78 114.518ZM187.141 161.749L190.968 162.913L205.328 115.681L201.501 114.518L197.674 113.354L183.314 160.585L187.141 161.749ZM201.501 114.518L202.354 110.61L193.223 108.617L192.37 112.525L191.517 116.433L200.648 118.426L201.501 114.518ZM192.37 112.525H196.37V76.5H192.37H188.37V112.525H192.37ZM192.37 76.5V80.5H259.025V76.5V72.5H192.37V76.5ZM259.025 76.5H255.025V112.525H259.025H263.025V76.5H259.025ZM259.025 112.525L258.5 108.56L243.475 110.552L244.001 114.518L244.527 118.483L259.551 116.491L259.025 112.525ZM244.001 114.518L240.261 113.1L206.31 202.665L210.051 204.083L213.791 205.501L247.741 115.935L244.001 114.518ZM210.051 204.083V200.083H150.949V204.083V208.083H210.051V204.083Z" fill="black" fill-opacity="0.2" mask="url(#path-1-outside-1_83_252)"/>
<mask id="path-3-outside-2_83_252" maskUnits="userSpaceOnUse" x="244" y="123" width="111" height="130" fill="black">
<rect fill="white" x="244" y="123" width="111" height="130"/>
<path d="M297.938 249.406C288.25 249.406 279.292 248.781 271.062 247.531C262.885 246.229 255.385 243.807 248.562 240.266V209.406H272.078C274.266 212.427 276.948 215.005 280.125 217.141C283.354 219.276 287.234 220.344 291.766 220.344C295.411 220.344 297.99 219.38 299.5 217.453C301.01 215.474 301.766 212.583 301.766 208.781C294.734 208.156 287.964 207.062 281.453 205.5C274.995 203.938 269.214 201.646 264.109 198.625C259.005 195.552 254.969 191.49 252 186.438C249.031 181.333 247.547 174.953 247.547 167.297C247.547 157.036 249.812 148.964 254.344 143.078C258.927 137.193 265.203 133 273.172 130.5C281.193 128 290.333 126.75 300.594 126.75C310.75 126.75 319.734 127.531 327.547 129.094C335.359 130.656 342.573 132.974 349.188 136.047V166.516H325.672C323.589 163.547 321.01 160.995 317.938 158.859C314.865 156.672 311.141 155.578 306.766 155.578C303.12 155.578 300.49 156.698 298.875 158.938C297.26 161.125 296.453 164.146 296.453 168C304.422 168.26 311.766 169.094 318.484 170.5C325.255 171.906 331.115 174.198 336.062 177.375C341.062 180.5 344.917 184.745 347.625 190.109C350.385 195.422 351.766 202.167 351.766 210.344C351.766 217.792 350.385 224.042 347.625 229.094C344.865 234.094 341.036 238.078 336.141 241.047C331.245 244.016 325.542 246.151 319.031 247.453C312.521 248.755 305.49 249.406 297.938 249.406Z"/>
</mask>
<path d="M297.938 249.406C288.25 249.406 279.292 248.781 271.062 247.531C262.885 246.229 255.385 243.807 248.562 240.266V209.406H272.078C274.266 212.427 276.948 215.005 280.125 217.141C283.354 219.276 287.234 220.344 291.766 220.344C295.411 220.344 297.99 219.38 299.5 217.453C301.01 215.474 301.766 212.583 301.766 208.781C294.734 208.156 287.964 207.062 281.453 205.5C274.995 203.938 269.214 201.646 264.109 198.625C259.005 195.552 254.969 191.49 252 186.438C249.031 181.333 247.547 174.953 247.547 167.297C247.547 157.036 249.812 148.964 254.344 143.078C258.927 137.193 265.203 133 273.172 130.5C281.193 128 290.333 126.75 300.594 126.75C310.75 126.75 319.734 127.531 327.547 129.094C335.359 130.656 342.573 132.974 349.188 136.047V166.516H325.672C323.589 163.547 321.01 160.995 317.938 158.859C314.865 156.672 311.141 155.578 306.766 155.578C303.12 155.578 300.49 156.698 298.875 158.938C297.26 161.125 296.453 164.146 296.453 168C304.422 168.26 311.766 169.094 318.484 170.5C325.255 171.906 331.115 174.198 336.062 177.375C341.062 180.5 344.917 184.745 347.625 190.109C350.385 195.422 351.766 202.167 351.766 210.344C351.766 217.792 350.385 224.042 347.625 229.094C344.865 234.094 341.036 238.078 336.141 241.047C331.245 244.016 325.542 246.151 319.031 247.453C312.521 248.755 305.49 249.406 297.938 249.406Z" fill="white"/>
<path d="M297.938 249.406C288.25 249.406 279.292 248.781 271.062 247.531C262.885 246.229 255.385 243.807 248.562 240.266V209.406H272.078C274.266 212.427 276.948 215.005 280.125 217.141C283.354 219.276 287.234 220.344 291.766 220.344C295.411 220.344 297.99 219.38 299.5 217.453C301.01 215.474 301.766 212.583 301.766 208.781C294.734 208.156 287.964 207.062 281.453 205.5C274.995 203.938 269.214 201.646 264.109 198.625C259.005 195.552 254.969 191.49 252 186.438C249.031 181.333 247.547 174.953 247.547 167.297C247.547 157.036 249.812 148.964 254.344 143.078C258.927 137.193 265.203 133 273.172 130.5C281.193 128 290.333 126.75 300.594 126.75C310.75 126.75 319.734 127.531 327.547 129.094C335.359 130.656 342.573 132.974 349.188 136.047V166.516H325.672C323.589 163.547 321.01 160.995 317.938 158.859C314.865 156.672 311.141 155.578 306.766 155.578C303.12 155.578 300.49 156.698 298.875 158.938C297.26 161.125 296.453 164.146 296.453 168C304.422 168.26 311.766 169.094 318.484 170.5C325.255 171.906 331.115 174.198 336.062 177.375C341.062 180.5 344.917 184.745 347.625 190.109C350.385 195.422 351.766 202.167 351.766 210.344C351.766 217.792 350.385 224.042 347.625 229.094C344.865 234.094 341.036 238.078 336.141 241.047C331.245 244.016 325.542 246.151 319.031 247.453C312.521 248.755 305.49 249.406 297.938 249.406Z" fill="url(#paint1_linear_83_252)"/>
<path d="M271.062 247.531L270.591 250.494L270.601 250.496L270.612 250.497L271.062 247.531ZM248.562 240.266H245.562V242.088L247.18 242.928L248.562 240.266ZM248.562 209.406V206.406H245.562V209.406H248.562ZM272.078 209.406L274.508 207.647L273.61 206.406H272.078V209.406ZM280.125 217.141L278.451 219.63L278.461 219.637L278.47 219.643L280.125 217.141ZM299.5 217.453L301.861 219.304L301.873 219.289L301.885 219.273L299.5 217.453ZM301.766 208.781H304.766V206.036L302.031 205.793L301.766 208.781ZM281.453 205.5L280.748 208.416L280.753 208.417L281.453 205.5ZM264.109 198.625L262.562 201.195L262.572 201.201L262.581 201.207L264.109 198.625ZM252 186.438L249.407 187.946L249.414 187.957L252 186.438ZM254.344 143.078L251.977 141.235L251.972 141.241L251.967 141.248L254.344 143.078ZM273.172 130.5L272.279 127.636L272.274 127.638L273.172 130.5ZM349.188 136.047H352.188V134.133L350.451 133.326L349.188 136.047ZM349.188 166.516V169.516H352.188V166.516H349.188ZM325.672 166.516L323.216 168.239L324.112 169.516H325.672V166.516ZM317.938 158.859L316.198 161.303L316.212 161.313L316.226 161.323L317.938 158.859ZM298.875 158.938L301.289 160.719L301.299 160.706L301.309 160.692L298.875 158.938ZM296.453 168H293.453V170.904L296.355 170.998L296.453 168ZM318.484 170.5L317.87 173.436L317.874 173.437L318.484 170.5ZM336.062 177.375L334.442 179.899L334.457 179.909L334.473 179.919L336.062 177.375ZM347.625 190.109L344.947 191.461L344.955 191.477L344.963 191.493L347.625 190.109ZM347.625 229.094L350.251 230.544L350.258 230.532L347.625 229.094ZM297.938 249.406V246.406C288.377 246.406 279.571 245.789 271.513 244.565L271.062 247.531L270.612 250.497C279.012 251.773 288.123 252.406 297.938 252.406V249.406ZM271.062 247.531L271.534 244.569C263.65 243.313 256.461 240.985 249.945 237.603L248.562 240.266L247.18 242.928C254.31 246.629 262.121 249.145 270.591 250.494L271.062 247.531ZM248.562 240.266H251.562V209.406H248.562H245.562V240.266H248.562ZM248.562 209.406V212.406H272.078V209.406V206.406H248.562V209.406ZM272.078 209.406L269.648 211.166C272.048 214.48 274.989 217.303 278.451 219.63L280.125 217.141L281.799 214.651C278.907 212.707 276.483 210.374 274.508 207.647L272.078 209.406ZM280.125 217.141L278.47 219.643C282.269 222.155 286.748 223.344 291.766 223.344V220.344V217.344C287.72 217.344 284.439 216.397 281.78 214.638L280.125 217.141ZM291.766 220.344V223.344C295.868 223.344 299.546 222.257 301.861 219.304L299.5 217.453L297.139 215.602C296.433 216.503 294.955 217.344 291.766 217.344V220.344ZM299.5 217.453L301.885 219.273C303.956 216.56 304.766 212.913 304.766 208.781H301.766H298.766C298.766 212.254 298.065 214.388 297.115 215.633L299.5 217.453ZM301.766 208.781L302.031 205.793C295.139 205.18 288.513 204.109 282.153 202.583L281.453 205.5L280.753 208.417C287.414 210.016 294.33 211.132 301.5 211.769L301.766 208.781ZM281.453 205.5L282.159 202.584C275.955 201.083 270.457 198.896 265.637 196.043L264.109 198.625L262.581 201.207C267.97 204.396 274.034 206.792 280.748 208.416L281.453 205.5ZM264.109 198.625L265.657 196.055C260.974 193.235 257.297 189.531 254.586 184.918L252 186.438L249.414 187.957C252.64 193.448 257.037 197.869 262.562 201.195L264.109 198.625ZM252 186.438L254.593 184.929C251.959 180.4 250.547 174.577 250.547 167.297H247.547H244.547C244.547 175.329 246.104 182.267 249.407 187.946L252 186.438ZM247.547 167.297H250.547C250.547 157.45 252.723 150.101 256.721 144.908L254.344 143.078L251.967 141.248C246.902 147.826 244.547 156.623 244.547 167.297H247.547ZM254.344 143.078L256.711 144.921C260.875 139.574 266.611 135.703 274.07 133.362L273.172 130.5L272.274 127.638C263.796 130.297 256.979 134.812 251.977 141.235L254.344 143.078ZM273.172 130.5L274.065 133.364C281.741 130.972 290.572 129.75 300.594 129.75V126.75V123.75C290.095 123.75 280.645 125.028 272.279 127.636L273.172 130.5ZM300.594 126.75V129.75C310.603 129.75 319.384 130.521 326.959 132.035L327.547 129.094L328.135 126.152C320.085 124.542 310.897 123.75 300.594 123.75V126.75ZM327.547 129.094L326.959 132.035C334.559 133.556 341.543 135.804 347.924 138.768L349.188 136.047L350.451 133.326C343.602 130.144 336.16 127.757 328.135 126.152L327.547 129.094ZM349.188 136.047H346.188V166.516H349.188H352.188V136.047H349.188ZM349.188 166.516V163.516H325.672V166.516V169.516H349.188V166.516ZM325.672 166.516L328.128 164.792C325.835 161.526 323.003 158.726 319.649 156.396L317.938 158.859L316.226 161.323C319.018 163.264 321.342 165.568 323.216 168.239L325.672 166.516ZM317.938 158.859L319.677 156.415C316.018 153.811 311.661 152.578 306.766 152.578V155.578V158.578C310.62 158.578 313.711 159.533 316.198 161.303L317.938 158.859ZM306.766 155.578V152.578C302.494 152.578 298.792 153.922 296.441 157.183L298.875 158.938L301.309 160.692C302.187 159.474 303.745 158.578 306.766 158.578V155.578ZM298.875 158.938L296.461 157.156C294.336 160.035 293.453 163.764 293.453 168H296.453H299.453C299.453 164.527 300.185 162.215 301.289 160.719L298.875 158.938ZM296.453 168L296.355 170.998C304.177 171.254 311.346 172.071 317.87 173.436L318.484 170.5L319.099 167.564C312.186 166.117 304.666 165.267 296.551 165.002L296.453 168ZM318.484 170.5L317.874 173.437C324.348 174.782 329.852 176.952 334.442 179.899L336.062 177.375L337.683 174.851C332.377 171.444 326.163 169.031 319.094 167.563L318.484 170.5ZM336.062 177.375L334.473 179.919C338.998 182.748 342.481 186.576 344.947 191.461L347.625 190.109L350.303 188.757C347.353 182.913 343.127 178.252 337.652 174.831L336.062 177.375ZM347.625 190.109L344.963 191.493C347.435 196.251 348.766 202.481 348.766 210.344H351.766H354.766C354.766 201.853 353.336 194.593 350.287 188.726L347.625 190.109ZM351.766 210.344H348.766C348.766 217.433 347.451 223.155 344.992 227.655L347.625 229.094L350.258 230.532C353.32 224.928 354.766 218.151 354.766 210.344H351.766ZM347.625 229.094L344.999 227.644C342.492 232.184 339.034 235.784 334.585 238.482L336.141 241.047L337.696 243.612C343.039 240.372 347.237 236.004 350.251 230.544L347.625 229.094ZM336.141 241.047L334.585 238.482C330.031 241.243 324.665 243.267 318.443 244.511L319.031 247.453L319.62 250.395C326.418 249.035 332.459 246.788 337.696 243.612L336.141 241.047ZM319.031 247.453L318.443 244.511C312.15 245.77 305.318 246.406 297.938 246.406V249.406V252.406C305.661 252.406 312.891 251.741 319.62 250.395L319.031 247.453Z" fill="black" mask="url(#path-3-outside-2_83_252)"/>
<defs>
<linearGradient id="paint0_linear_83_252" x1="180.5" y1="0" x2="180.5" y2="244" gradientUnits="userSpaceOnUse">
<stop offset="0.524039" stop-color="#1585B8"/>
<stop offset="0.995197" stop-color="#093B52"/>
</linearGradient>
<linearGradient id="paint1_linear_83_252" x1="299.5" y1="180" x2="299.5" y2="333" gradientUnits="userSpaceOnUse">
<stop offset="0.278844" stop-color="#E50404" stop-opacity="0.8"/>
<stop offset="0.961543" stop-color="#8A0D0D"/>
</linearGradient>
</defs>
</svg>
