<svg width="25" height="25" viewBox="0 0 25 25" fill="none" xmlns="http://www.w3.org/2000/svg">
<rect x="0.25" y="0.25" width="24.5" height="24.5" rx="12.25" fill="#EE680B" stroke="black" stroke-width="0.5"/>
<mask id="mask0_92_80" style="mask-type:alpha" maskUnits="userSpaceOnUse" x="1" y="0" width="23" height="22">
<rect x="1.88137" y="0.306543" width="21.2373" height="21.2373" fill="#D9D9D9" stroke="black" stroke-width="0.2"/>
</mask>
<g mask="url(#mask0_92_80)">
<path d="M16.6879 5.2561V7.677H14.0082V14.3274C14.0081 15.0202 13.7562 15.6111 13.2504 16.1057C12.7444 16.6004 12.1389 16.8469 11.4281 16.8469C10.7173 16.8469 10.1118 16.6004 9.60583 16.1057C9.10002 15.6111 8.84814 15.0202 8.84802 14.3274C8.84802 13.6343 9.09991 13.0428 9.60583 12.5481C10.1118 12.0534 10.7173 11.8069 11.4281 11.8069C11.6149 11.8069 11.7899 11.8233 11.9535 11.8557L12.1136 11.8928C12.3221 11.9503 12.5229 12.0371 12.7162 12.1526L12.8676 12.2434V5.2561H16.6879Z" fill="white" stroke="black" stroke-width="0.2"/>
</g>
</svg>
