<svg width="50" height="50" viewBox="0 0 50 50" fill="none" xmlns="http://www.w3.org/2000/svg">
<rect width="50" height="50" rx="25" fill="#404040"/>
<mask id="mask0_90_41" style="mask-type:alpha" maskUnits="userSpaceOnUse" x="9" y="9" width="32" height="32">
<rect x="9" y="9" width="32" height="32" fill="white"/>
</mask>
<g mask="url(#mask0_90_41)">
<path d="M21.3333 38.3334L20.8 34.0667C20.5111 33.9556 20.2389 33.8223 19.9833 33.6667C19.7278 33.5112 19.4778 33.3445 19.2333 33.1667L15.2666 34.8334L11.6 28.5001L15.0333 25.9001C15.0111 25.7445 15 25.5945 15 25.4501V24.5501C15 24.4056 15.0111 24.2556 15.0333 24.1001L11.6 21.5001L15.2666 15.1667L19.2333 16.8334C19.4778 16.6556 19.7333 16.489 20 16.3334C20.2666 16.1779 20.5333 16.0445 20.8 15.9334L21.3333 11.6667H28.6666L29.2 15.9334C29.4889 16.0445 29.7611 16.1779 30.0166 16.3334C30.2722 16.489 30.5222 16.6556 30.7666 16.8334L34.7333 15.1667L38.4 21.5001L34.9666 24.1001C34.9889 24.2556 35 24.4056 35 24.5501V25.4501C35 25.5945 34.9778 25.7445 34.9333 25.9001L38.3666 28.5001L34.7 34.8334L30.7666 33.1667C30.5222 33.3445 30.2666 33.5112 30 33.6667C29.7333 33.8223 29.4666 33.9556 29.2 34.0667L28.6666 38.3334H21.3333ZM25.0666 29.6667C26.3555 29.6667 27.4555 29.2112 28.3666 28.3001C29.2778 27.389 29.7333 26.289 29.7333 25.0001C29.7333 23.7112 29.2778 22.6112 28.3666 21.7001C27.4555 20.789 26.3555 20.3334 25.0666 20.3334C23.7555 20.3334 22.65 20.789 21.75 21.7001C20.85 22.6112 20.4 23.7112 20.4 25.0001C20.4 26.289 20.85 27.389 21.75 28.3001C22.65 29.2112 23.7555 29.6667 25.0666 29.6667Z" fill="white"/>
</g>
</svg>
